<?xml version="1.0" ?>
<!-- Uploaded to: SVG Repo, www.svgrepo.com, Generator: SVG Repo Mixer Tools -->
<svg fill="#000000" width="800px" height="800px" viewBox="0 0 32 32" xmlns="http://www.w3.org/2000/svg">
<title/>
<g data-name="Layer 2" id="Layer_2">
<path d="M28,18a1,1,0,0,0,.79-.39,1,1,0,0,0,.18-.87l-4-15A1,1,0,0,0,24,1H8a1,1,0,0,0-1,.74l-4,15a1,1,0,0,0,.18.87A1,1,0,0,0,4,18h7v4a1,1,0,0,0,0,2h2a1,1,0,0,0,0-2V18h2v8H13a4,4,0,0,0-4,4,1,1,0,0,0,1,1H22a1,1,0,0,0,1-1,4,4,0,0,0-4-4H17V18ZM20.73,29H11.27A2,2,0,0,1,13,28h6A2,2,0,0,1,20.73,29ZM8.77,3H23.23l2.4,9H6.37ZM5.84,14H26.16l.54,2H5.3Z"/>
</g>
</svg>